<?xml version="1.0" standalone="no"?>
<!DOCTYPE svg PUBLIC "-//W3C//DTD SVG 20010904//EN"
 "http://www.w3.org/TR/2001/REC-SVG-20010904/DTD/svg10.dtd">
<svg version="1.0" xmlns="http://www.w3.org/2000/svg"
 width="500.000000pt" height="500.000000pt" viewBox="0 0 500.000000 500.000000"
 preserveAspectRatio="xMidYMid meet">

<g transform="translate(0.000000,500.000000) scale(0.100000,-0.100000)"
fill="#000000" stroke="none">
<path d="M1892 3114 c-27 -19 -30 -75 -5 -95 9 -8 35 -14 58 -14 53 0 75 18
75 61 0 39 -29 64 -75 64 -17 0 -41 -7 -53 -16z"/>
<path d="M2120 2830 l0 -290 70 0 70 0 0 290 0 290 -70 0 -70 0 0 -290z"/>
<path d="M700 2810 l0 -270 160 0 160 0 0 60 0 60 -85 0 -85 0 0 50 0 50 80 0
80 0 0 60 0 60 -80 0 -80 0 0 45 0 45 85 0 85 0 0 55 0 55 -160 0 -160 0 0
-270z"/>
<path d="M1310 2959 c-14 -6 -35 -20 -47 -31 l-22 -21 -12 27 c-11 23 -18 26
-66 26 l-53 0 0 -210 0 -210 69 0 69 0 4 133 c4 149 14 177 57 177 49 0 56
-20 59 -172 l4 -138 69 0 69 0 0 120 c0 147 13 190 58 190 49 0 55 -18 60
-171 l5 -139 68 0 69 0 0 160 c0 178 -9 216 -56 247 -20 12 -47 18 -89 18 -52
0 -67 -4 -97 -27 -33 -25 -37 -26 -49 -11 -32 38 -115 53 -169 32z"/>
<path d="M1870 2750 l0 -210 75 0 75 0 0 210 0 210 -75 0 -75 0 0 -210z"/>
<path d="M2395 2753 c79 -198 82 -209 69 -236 -17 -32 -57 -51 -91 -42 -22 5
-23 3 -23 -55 l0 -60 57 0 c78 0 136 29 168 85 24 40 195 485 195 506 0 6 -31
9 -72 7 l-72 -3 -40 -136 -41 -136 -39 139 -39 138 -78 0 -77 0 83 -207z"/>
<path d="M2050 2210 l0 -290 70 0 70 0 0 119 c0 117 9 168 33 183 23 15 66 8
77 -11 5 -11 10 -81 10 -155 l0 -136 75 0 75 0 0 143 c0 160 -10 208 -49 248
-49 49 -150 51 -197 4 l-24 -24 0 104 0 105 -70 0 -70 0 0 -290z"/>
<path d="M1300 2182 c0 -320 1 -318 -75 -316 l-46 1 3 -56 3 -56 50 -3 c105
-7 181 40 204 125 7 22 11 151 11 311 l0 272 -75 0 -75 0 0 -278z"/>
<path d="M1680 2339 c-78 -24 -123 -82 -136 -176 -12 -95 34 -192 111 -231 41
-21 112 -24 167 -8 92 26 138 96 138 209 0 123 -72 205 -186 213 -32 2 -75 -1
-94 -7z m114 -121 c11 -15 16 -45 16 -88 0 -73 -18 -110 -53 -110 -45 0 -67
36 -67 110 0 51 12 88 34 102 21 15 55 8 70 -14z"/>
<path d="M2760 2339 c-14 -6 -35 -20 -48 -32 -20 -18 -24 -19 -32 -7 -5 8 -10
21 -10 28 0 8 -18 12 -55 12 l-55 0 0 -210 0 -210 70 0 70 0 0 120 c0 153 13
190 64 190 25 0 38 -6 46 -19 5 -11 10 -81 10 -155 l0 -136 76 0 76 0 -3 169
c-4 153 -6 172 -25 198 -40 54 -121 77 -184 52z"/>
<path d="M3135 2335 c-56 -20 -85 -56 -85 -106 0 -68 22 -96 108 -137 89 -43
100 -65 35 -70 -39 -3 -81 5 -125 23 -16 6 -18 0 -18 -53 l0 -61 38 -8 c74
-15 185 -9 222 13 46 26 72 77 66 127 -7 59 -31 86 -112 123 -45 20 -74 39
-74 49 0 19 50 19 105 0 22 -8 41 -15 41 -15 5 0 35 92 31 96 -11 11 -114 34
-152 33 -22 0 -58 -6 -80 -14z"/>
<path d="M4060 2339 c-14 -6 -35 -20 -48 -32 -20 -18 -24 -19 -32 -7 -5 8 -10
21 -10 28 0 8 -18 12 -55 12 l-55 0 0 -210 0 -210 70 0 70 0 0 120 c0 153 13
190 64 190 25 0 38 -6 46 -19 5 -11 10 -81 10 -155 l0 -136 76 0 76 0 -3 169
c-4 153 -6 172 -25 198 -40 54 -121 77 -184 52z"/>
<path d="M3514 2286 c-28 -13 -55 -29 -58 -35 -6 -10 49 -121 59 -121 5 0 105
166 105 174 0 14 -59 4 -106 -18z"/>
<path d="M3625 2259 c-46 -72 -49 -69 64 -69 56 0 101 3 101 8 -2 25 -96 102
-127 102 -7 0 -24 -18 -38 -41z"/>
<path d="M3412 2185 c-7 -14 -12 -53 -12 -85 l0 -60 65 0 c36 0 65 3 65 6 0
10 -94 164 -101 164 -3 0 -11 -11 -17 -25z"/>
<path d="M3722 2073 c28 -49 53 -90 54 -92 10 -12 34 76 34 124 l0 55 -69 0
-70 0 51 -87z"/>
<path d="M3640 1989 c-58 -104 -56 -99 -23 -99 29 0 95 28 126 53 16 14 16 18
-15 71 -18 31 -35 56 -38 56 -3 0 -25 -37 -50 -81z"/>
<path d="M3420 2005 c0 -29 95 -105 131 -105 11 0 69 88 69 105 0 3 -45 5
-100 5 -55 0 -100 -2 -100 -5z"/>
</g>
</svg>
